<svg xmlns="http://www.w3.org/2000/svg" xmlns:xlink="http://www.w3.org/1999/xlink" width="90" height="86.72" viewBox="0 0 90 86.72"><defs><linearGradient id="a" x1="0.5" x2="0.5" y2="1" gradientUnits="objectBoundingBox"><stop offset="0" stop-color="#68bef8"/><stop offset="1" stop-color="#1c689b"/></linearGradient><linearGradient id="d" x1="0.34" y1="0.7" x2="0.628" y2="-0.321" gradientUnits="objectBoundingBox"><stop offset="0" stop-color="#8fa6f2"/><stop offset="0.477" stop-color="#6372a7"/><stop offset="1" stop-color="#485379"/></linearGradient><linearGradient id="e" x1="0.5" x2="0.5" y2="1" gradientUnits="objectBoundingBox"><stop offset="0" stop-color="#4b75be"/><stop offset="0.992" stop-color="#234e98"/><stop offset="1" stop-color="#467ad2"/></linearGradient></defs><path d="M12.1,30.7c2.378-3.1,5.338-6.083,9.1-7.4,2.113-.738,6.439-1.641,7.68.906a.549.549,0,0,1-.467.813C16.9,26.415,12.282,38.9,11.875,49.056c-.2,5.023.856,10.343,4.4,14.11A14.183,14.183,0,0,0,28.91,67.1a29.607,29.607,0,0,0,6.317-2.049c.509-.221.734-.294.98-.678a15.722,15.722,0,0,1,2.305-2.739c3.644-3.563-1.713-.037,2.653-2.554,4.873-2.809,18.66-9.127,22.336-13.539,1.369-1.643,3.763-5.025,3.619-7.169-.2-2.988-1.384-5.938-2.238-8.781-2.269-7.557-2.9-18.65,6.229-21.764,4.235-1.445,9.559-1.745,13.713.118a9.6,9.6,0,0,1,3.789,3.641c.543.781,1.047,1.589,1.577,2.379.277.413.7,1.244,1.2,1.424a.552.552,0,0,1,.355.656.5.5,0,0,1,.09.452c-.435,1.73.425,3.457,1.159,4.98a18.926,18.926,0,0,1,1.936,4.937c.54,3.179-2.382,5.871-5.037,7.065-3.279,1.475-6.238-1.269-8.365-3.484A32.494,32.494,0,0,1,78.715,26.6c-.959,4.654.392,9.369,1.862,13.92a.552.552,0,0,1,.271-.211c2-.753,9.951.976,6.657,3.994a.547.547,0,0,1-.9-.239c-.312-.876-1.1-1.141-.914.05a.549.549,0,0,1-.521.684,1.7,1.7,0,0,1-1.522-.886c-.532-.828-.67-1.349-1.829-1.077a.514.514,0,0,1-.551-.2c.315.975.619,1.94.89,2.894a36.985,36.985,0,0,1,1.074,17.011,28.027,28.027,0,0,1-6.692,13.894c-.028.03-.057.058-.085.088a.484.484,0,0,1-.269.278A34.464,34.464,0,0,1,70.5,81.271c-.461.308-.929.605-1.4.9a19.893,19.893,0,0,1,4.742.862c.856.252,4.816,1.311,3.971,2.86-.778,1.427-3.652.6-4.776.243a25.344,25.344,0,0,0-8.91-1.34c-.375.163-.751.322-1.132.472a17.976,17.976,0,0,1-6.523,1.349h-.012c-.337.392-.683.767-1.039,1.121a41.45,41.45,0,0,1,7.334.906c1.668.339,6.162,1.209,5.449,3.814-.626,2.288-3.566-.431-4.7-.84a12.171,12.171,0,0,0-4.574-.259,34.735,34.735,0,0,1-5.135-.32c-2.286-.258-4.456-.287-6.745-.324-1.379-.022-3.686,0-3.88-1.816-.133-1.248.208-2.221-.342-3.418-.481-1.047-1.092-2.036-1.66-3.038a24.484,24.484,0,0,0-3.693-5.447c-1.592-1.576-4.744-.21-6.538.324a15.28,15.28,0,0,1-6.708.306C13.25,76,6.5,64.665,5.231,54.445A32.324,32.324,0,0,1,12.1,30.7ZM81.529,41.8a2.327,2.327,0,0,1,2.348.452c.289.288.451.843.736,1.183a1.42,1.42,0,0,1,.959-1.253,1.364,1.364,0,0,1,1.552.641c-.072-.655-1.426-1.007-2.124-1.191-1.091-.288-2.757-.691-3.864-.274a.491.491,0,0,1-.281.025q.146.444.288.887A.47.47,0,0,1,81.529,41.8ZM69.812,84.182c2.056.4,4.083,1.4,6.2,1.364a2.358,2.358,0,0,0,.685-.1l-.008-.012a3.725,3.725,0,0,0-.547-.349,13.446,13.446,0,0,0-2.9-1.1,14.616,14.616,0,0,0-6.116-.657q-.38.207-.763.4A26.862,26.862,0,0,1,69.812,84.182ZM8.44,62.291c2.177,5.315,5.822,10.167,11.053,12.738a17.918,17.918,0,0,0,8.056,1.752c2.329-.021,4.436-1.056,6.711-1.429A4.514,4.514,0,0,1,39,77.089a37.9,37.9,0,0,1,3.374,5.3A30.743,30.743,0,0,1,44,85.474a7.758,7.758,0,0,1,.222,3.163c.029,1.547,4.445.988,5.462.971,2.822-.046,5.625.63,8.452.676a38.488,38.488,0,0,1,4.363,0,9.051,9.051,0,0,1,3.614,1.537,3.387,3.387,0,0,0,.98.437c.6-1.734-4.272-2.516-5.252-2.7a35.857,35.857,0,0,0-7.856-.735c-.674.025-.692-.981-.066-1.072a.513.513,0,0,1,.145-.215c4.483-4.079,7.453-11.054,6.112-17.115a9.053,9.053,0,0,0-5.646-6.656c-2.877-1.019-6.9-.794-8.831,1.87-.4.558-1.344.02-.933-.546,2.063-2.843,5.818-3.356,9.056-2.649a9.9,9.9,0,0,1,7.04,6.471c1.979,5.362-.026,11.927-3.511,16.589a19.054,19.054,0,0,0,6.289-1.594.526.526,0,0,1,.392-.194l.054,0c.79-.355,1.566-.748,2.328-1.169a.428.428,0,0,1,.354-.256c.044-.007.088-.011.132-.018a58.105,58.105,0,0,0,5.2-3.427,24.868,24.868,0,0,0,2.546-2.124c-3.241-.631-5.54-3.465-8.16-5.343-.561-.4-.022-1.341.546-.933,2.659,1.906,5.089,5.1,8.568,5.312a24.876,24.876,0,0,0,4.636-7.081,12.419,12.419,0,0,1-8.347-2.987c-.542-.44.228-1.2.764-.764a10.963,10.963,0,0,0,8.043,2.632q.351-.906.646-1.848a30.183,30.183,0,0,0,.93-3.9c-3.852.39-7.39-1.091-10.822-2.759-.627-.305-.079-1.237.546-.933,3.269,1.589,6.735,3.1,10.443,2.6A34.354,34.354,0,0,0,81.8,48.475c-1.42-6.19-4.393-12.2-4.489-18.63a16.1,16.1,0,0,1,.45-3.936.484.484,0,0,1,.228-.321,8.517,8.517,0,0,0-2.611-2.681,5.192,5.192,0,0,0,.1.56.541.541,0,0,1-1.042.287,9.4,9.4,0,0,1-.219-1.671.545.545,0,0,1,.684-.521c2.882.716,4.321,4.266,6.131,6.3,1.936,2.175,4.913,5.889,8.208,4.724A8.842,8.842,0,0,0,93.268,29.3c.975-1.417.673-2.939.107-4.457-1.015-2.723-3.32-5.5-2.593-8.568-1.179-.662-1.971-2.446-2.646-3.469a20.111,20.111,0,0,0-2.006-2.65,6.818,6.818,0,0,0-3.222-1.761A18.992,18.992,0,0,0,74.2,8.149,11.949,11.949,0,0,0,67.341,11.4c-3.418,3.638-3.271,9.8-2.347,14.347.664,3.27,1.9,6.395,2.7,9.633a11.5,11.5,0,0,1,.213,6.035,13.285,13.285,0,0,1-3.583,5.11,27.658,27.658,0,0,1-7.038,4.708c-2.355,1.243-4.637,2.6-6.959,3.9-2.278,1.278-4.571,2.528-6.764,3.949a23.3,23.3,0,0,0-5.934,5.151c-.366.477-.6,1.182-1.164,1.445-.628.294-1.268.562-1.911.822a27.393,27.393,0,0,1-6.668,1.851,15.227,15.227,0,0,1-6.515-.769A14.706,14.706,0,0,1,12.4,59.1c-1.919-4.526-1.894-9.588-1.2-14.375a29.765,29.765,0,0,1,5.46-13.989,17.116,17.116,0,0,1,10.73-6.646c-1.318-.967-3.963-.258-5.31.071-2.878.7-5.28,2.838-7.249,4.944A32.844,32.844,0,0,0,6.493,45.5,30.263,30.263,0,0,0,8.44,62.291Z" transform="translate(-5 -6.64)" fill="url(#a)"/><ellipse cx="0.927" cy="0.861" rx="0.927" ry="0.861" transform="translate(73.815 12.105) rotate(-98.68)" fill="url(#a)"/><ellipse cx="0.729" cy="0.677" rx="0.729" ry="0.677" transform="matrix(-0.383, -0.924, 0.924, -0.383, 81.777, 10.174)" fill="url(#a)"/><path d="M5.037,15.411c-.5-.333,1-4.667,1-4.667s1-9.167,0-10.167S1.2.077.37.577s0,10.167,0,10.167,2,4,1.167,4.667,1,4.167,1,4.167H4.2S5.537,15.744,5.037,15.411Z" transform="translate(79.481 58.255) rotate(-159)" fill="url(#d)"/><path d="M0,40.782v.764a1.146,1.146,0,0,0,1.146,1.146h.382l1.247,8.727a2.292,2.292,0,0,0,2.269,1.968H22.457a2.292,2.292,0,0,0,2.269-1.968l1.247-8.727h.382A1.146,1.146,0,0,0,27.5,41.546v-.764a1.146,1.146,0,0,0-1.146-1.146H23.139l-5.1-7.01a1.528,1.528,0,1,0-2.471,1.8l3.791,5.212H8.139l3.791-5.213a1.528,1.528,0,0,0-2.471-1.8l-5.1,7.01H1.146A1.146,1.146,0,0,0,0,40.782Zm12.6,8.4V43.838a1.146,1.146,0,1,1,2.292,0v5.347a1.146,1.146,0,0,1-2.292,0Zm-5.347,0V43.838a1.146,1.146,0,1,1,2.292,0v5.347a1.146,1.146,0,0,1-2.292,0Zm10.694,0V43.838a1.146,1.146,0,1,1,2.292,0v5.347a1.146,1.146,0,0,1-2.292,0Z" transform="translate(58.5 8.003)" fill="url(#e)"/><path d="M20.142,45.4c1.032-.373,2.192-.518,2.673.668a6.661,6.661,0,0,1,.055,2.368c.515-.515.672-1.53,1.268-2.024.416-.344,1.022-.075.9.476a1.4,1.4,0,0,0,.312,1.267c1.4-2.069-1.92-4.361-4.044-4.059-.682.1-.975-.9-.287-.993,3.306-.47,7.784,3.173,4.752,6.325a.546.546,0,0,1-.764,0,3.681,3.681,0,0,1-.86-1.148c-.3.671-.548,1.322-1.547,1.5a.556.556,0,0,1-.665-.378,5.57,5.57,0,0,1-.093-2.092,2.928,2.928,0,0,0-.072-.952c-.125-.438-1.109,0-1.343.087C19.772,46.681,19.492,45.636,20.142,45.4Z" transform="translate(48.447 -6.64)" fill="#1592e6"/><g transform="translate(78 20)" fill="#fff" stroke="#0e7dc7" stroke-width="1"><ellipse cx="5" cy="3.5" rx="5" ry="3.5" stroke="none"/><ellipse cx="5" cy="3.5" rx="4.5" ry="3" fill="none"/></g><path d="M216.759,365.25s9.5-5.5,11,4-4.5,18.5-4.5,18.5l-9.25,1.25" transform="translate(-175.009 -306)" fill="none" stroke="#0e7dc7" stroke-width="1"/><line x2="3" y2="4" transform="translate(79.5 12.5)" fill="none" stroke="#0e7dc7" stroke-width="1"/><path d="M187.583,328.583l-1.25,1-1.25-2.083-1.583,1.583-1.333-1.917-2,1.417" transform="translate(-100.75 -306)" fill="none" stroke="#0e7dc7" stroke-width="1"/></svg>